<svg xmlns="http://www.w3.org/2000/svg" viewBox="0 0 448 448"><defs><style>.cls-1{fill:#f2f2f2;}.cls-2{fill:none;}.cls-3{fill:#9ea8db;}.cls-4{fill:#343530;}.cls-5{fill:#5a5a58;}.cls-6{fill:#e8e8e8;}</style></defs><g id="Layer_2" data-name="Layer 2"><rect class="cls-1" width="448" height="448"/></g><g id="Layer_1" data-name="Layer 1"><circle class="cls-2" cx="224" cy="170" r="110.77"/><path class="cls-3" d="M275.43,221.39h-.33l-6.55-23.27H247l17.89,42.44-.33.93a8,8,0,0,1-2.31,3.31,7.34,7.34,0,0,1-4.75,1.29,15.57,15.57,0,0,1-2.81-.29,15.28,15.28,0,0,1-2.65-.72l-2.43,16a16.61,16.61,0,0,0,2.09.47c.84.14,1.75.28,2.74.42s2,.25,3.06.34,2.1.12,3.11.12a28.05,28.05,0,0,0,8.53-1.17,18.4,18.4,0,0,0,6.34-3.45,22.93,22.93,0,0,0,4.7-5.5,44.38,44.38,0,0,0,3.62-7.35L302,198.12H281.23Z"/><path class="cls-3" d="M334.77,170a110.24,110.24,0,0,0-23.68-68.4V238.4A110.24,110.24,0,0,0,334.77,170Z"/><path class="cls-3" d="M224,59.23a110.77,110.77,0,1,0,21.45,219.44V61.33A110.66,110.66,0,0,0,224,59.23Zm-62.6,143a37.67,37.67,0,0,0,4.49,1.68q3.2,1,6.72,2.35a28.71,28.71,0,0,1,6.51,3.48A18.42,18.42,0,0,1,184,215a14.46,14.46,0,0,1,1.93,7.73,19.57,19.57,0,0,1-2.14,9.36,20.37,20.37,0,0,1-5.63,6.64,24.43,24.43,0,0,1-7.86,3.95,30.78,30.78,0,0,1-8.9,1.31,41.27,41.27,0,0,1-7.1-.62,40,40,0,0,1-6.72-1.85,43.34,43.34,0,0,1-6.1-2.85A30.1,30.1,0,0,1,136.4,235l12.18-13.23a19.54,19.54,0,0,0,5.59,4,15.66,15.66,0,0,0,7.19,1.77,7.91,7.91,0,0,0,3.07-.59,2.17,2.17,0,0,0,1.38-2.19,2.25,2.25,0,0,0-.46-1.43,5.24,5.24,0,0,0-1.64-1.22,28.85,28.85,0,0,0-3.24-1.37q-2.06-.75-5.17-1.76a45,45,0,0,1-5.79-2.41,20.62,20.62,0,0,1-4.92-3.41,14.94,14.94,0,0,1-3.4-4.84,16.46,16.46,0,0,1-1.26-6.77,18.37,18.37,0,0,1,2.27-9.43,19.89,19.89,0,0,1,5.84-6.37,23.94,23.94,0,0,1,8-3.58,36.48,36.48,0,0,1,8.82-1.09,34.07,34.07,0,0,1,12,2.27A32.06,32.06,0,0,1,187.57,190l-12.44,12.69a13,13,0,0,0-5-3.82,13.24,13.24,0,0,0-5.29-1.31,8.25,8.25,0,0,0-3.53.64,2.13,2.13,0,0,0-1.34,2.05A2.15,2.15,0,0,0,161.4,202.24Zm83.88,40.06h-22.6l-10.33-19.23h-.26v19.24h-19.4V178.8h19.4V215h.26l10.5-16.89h22.51L231.08,218Z"/><path class="cls-3" d="M251,425.49a10.61,10.61,0,0,1-.51-2.16c-.39-3.17-.84-6.33-1.25-9.5-.35-2.65-.66-5.31-1-8-.38-2.87-.79-5.73-1.19-8.6-.19-1.4-.37-2.8-.55-4.2-.22-1.77-.43-3.54-.64-5.31.42-.88.81-1.76,1.26-2.62,1-1.86,2-3.68,3-5.54.71-1.4.66-1.66-.37-2.78s-2.31-2.54-3.44-3.83c-3.25-3.7-6.61-7.31-9.93-10.95-.25-.28-.51-.54-.76-.82-2-2.24-3.94-4.49-5.92-6.72-.59-.67-1.19-1.33-1.76-2-1-1.2-2.12-2.3-3.23-3.42-.48-.49-.8-.45-1.34.06a10.64,10.64,0,0,0-1.4,1.45c-1,1.34-2.22,2.43-3.26,3.7-1.42,1.73-3,3.31-4.51,5-3,3.4-6,6.85-9,10.25-1.93,2.18-3.93,4.3-5.9,6.44-.21.22-.41.44-.6.67-1.2,1.54-1.2,1.53.1,3.13.56.7,1.14,1.39,1.65,2.12,1.42,2,3.18,3.77,4.43,5.91l-2.52,12q-2.16,10.25-4.32,20.49a20,20,0,0,1-1.19,4.51,2.17,2.17,0,0,1-.92-.95c-.81-1.35-1.6-2.7-2.4-4.05-3.59-6-7.27-12-10.58-18.21-.64-1.18-1.32-2.34-2-3.5-.36-.6-.75-.61-1.25-.07-.81.88-1.6,1.78-2.41,2.65-1.89,2-1.89,2-3.09-.35q-6.93-13.71-13.85-27.42Q147.08,346.71,134,320.55c-.43-.87-.82-1.76-1.22-2.64a23.13,23.13,0,0,1,3.16-4c2.31-2.84,4.71-5.6,7.09-8.39,2-2.34,4-4.65,6-7l9.26-11c.49-.57,1-1.11,1.55-1.63a.85.85,0,0,1,1.21,0c.46.39.88.82,1.3,1.24,4.83,4.8,9.61,9.66,14.5,14.4,15.22,14.73,30.09,29.81,45.13,44.72,1.89,1.87,2.36,1.75,4.15,0,9.47-9.47,18.88-19,28.5-28.33,10.65-10.31,21-20.88,31.6-31.26.32-.32.63-.64,1-.94s.67-.37,1.1.14c2.58,3,5.14,6,7.71,9.05,2,2.39,4.08,4.77,6.11,7.16,2.18,2.57,4.34,5.14,6.51,7.71q2.9,3.42,5.81,6.83c.33.39.79.71.79,1.3a5.56,5.56,0,0,1-.9,2.27q-5.61,11.12-11.23,22.21l-15.29,30.46q-6.94,13.83-13.89,27.64c-.33.65-.48,1.42-1.33,1.91l-2.7-2.93c-.4-.44-.78-.9-1.21-1.31a.74.74,0,0,0-1.16.15,9.43,9.43,0,0,0-.61.94l-1.94,3.28q-6.09,10.2-12.18,20.39A9.38,9.38,0,0,1,251,425.49Z"/><path class="cls-4" d="M134.57,447.89c-.82,0-1.64.07-2.47.08h-121c-3.12,0-2.76.33-2.61-2.78.23-4.86.47-9.71.81-14.56q.72-10.31,1.62-20.58c.43-4.92.91-9.84,1.49-14.74a214.73,214.73,0,0,1,4.9-28.49,51,51,0,0,1,2.82-8.27c.31-.68.71-1.31,1.05-2a3.5,3.5,0,0,1,2.19-1.74c7.66-2.56,15.3-5.17,22.94-7.76q24.74-8.38,49.48-16.77c.63-.22,1.29-.35,1.93-.52,0,.67,0,1.35-.14,2-.22,1.47-.54,2.93-.72,4.4-.36,2.8-.71,5.6-1.28,8.38-.28,1.38-.37,2.8-.56,4.2s-.33,2.66-.55,4c-.39,2.42-.84,4.83-1.21,7.26-.41,2.64-.77,5.3-1.15,7.94-.11.79.06,1.07.85,1.29,1.58.44,3.15.89,4.74,1.31l20.55,5.37c1.3.33,2.61.63,3.9,1,1.06.31,1.16.66.58,1.6-.15.25-.36.48-.52.72l-9.77,14.22c-.59.86-1.16,1.74-1.75,2.6-1.35,2-2.7,3.94-4.07,5.9a1.38,1.38,0,0,0,0,1.66c.62,1,1.22,2.06,1.86,3.07q4,6.22,8,12.45,6.12,9.51,12.25,19c1.7,2.63,3.42,5.26,5.12,7.89A3.55,3.55,0,0,1,134.57,447.89Z"/><path class="cls-4" d="M350.18,329.76a5.34,5.34,0,0,1,2.15.58q35.79,12.09,71.57,24.22c.35.12.69.28,1.06.37a2.75,2.75,0,0,1,1.7,1.34,23.8,23.8,0,0,1,2,4,74.65,74.65,0,0,1,3.25,11.42c1.4,6.59,2.4,13.24,3.27,19.92,1,8,1.8,16.05,2.49,24.1.45,5.21.76,10.44,1.08,15.67q.45,7.17.81,14.34c.12,2.42.25,2.23-2.06,2.23H315.14c-.59,0-1.19,0-1.78-.08a2.25,2.25,0,0,1,.51-1.22c2-3.14,4-6.3,6-9.44q6.4-10,12.84-19.93c2.79-4.33,5.53-8.69,8.38-13a2.27,2.27,0,0,0,0-2.87c-.67-1-1.41-1.92-2.08-2.91q-6.13-8.94-12.25-17.91c-.5-.74-1-1.48-1.44-2.26s-.29-1.2.63-1.44l20.5-5.44,8.42-2.23c.93-.25,1.25-.72,1.1-1.63-.1-.58-.29-1.15-.37-1.74-.36-2.5-.66-5-1-7.5s-.81-5-1.22-7.48c-.15-1-.31-1.9-.44-2.86-.2-1.47-.33-2.95-.56-4.42-.54-3.52-1.18-7-1.66-10.56A12.8,12.8,0,0,1,350.18,329.76Z"/><path class="cls-5" d="M134.57,447.89a3.55,3.55,0,0,0-.77-1.84c-1.7-2.63-3.42-5.26-5.12-7.89q-6.14-9.51-12.25-19-4-6.22-8-12.45c-.64-1-1.24-2.05-1.86-3.07a1.38,1.38,0,0,1,0-1.66c1.37-2,2.72-3.93,4.07-5.9.59-.86,1.16-1.74,1.75-2.6l9.77-14.22c.16-.24.37-.47.52-.72.58-.94.48-1.29-.58-1.6-1.29-.37-2.6-.67-3.9-1l-20.55-5.37c-1.59-.42-3.16-.87-4.74-1.31-.79-.22-1-.5-.85-1.29.38-2.64.74-5.3,1.15-7.94.37-2.43.82-4.84,1.21-7.26.22-1.32.38-2.65.55-4s.28-2.82.56-4.2c.57-2.78.92-5.58,1.28-8.38.18-1.47.5-2.93.72-4.4.09-.66.1-1.34.14-2a11.41,11.41,0,0,1,3.12-1.21q14.75-5,29.52-10c.78-.26,1.59-.44,2.38-.65.4.88.79,1.77,1.22,2.64q13.13,26.15,26.25,52.29,6.9,13.73,13.85,27.42c1.2,2.36,1.2,2.37,3.09.35.81-.87,1.6-1.77,2.41-2.65.5-.54.89-.53,1.25.07.69,1.16,1.37,2.32,2,3.5,3.31,6.19,7,12.18,10.58,18.21.8,1.35,1.59,2.7,2.4,4.05a2.17,2.17,0,0,0,.92.95,4.22,4.22,0,0,0,.89,3.13q5.59,8.92,11.15,17.87c.38.62.73,1.26,1.06,1.83-.33.52-.74.41-1.08.41-1.64,0-3.28,0-4.93,0H137C136.2,448,135.39,447.92,134.57,447.89Z"/><path class="cls-5" d="M350.18,329.76a12.8,12.8,0,0,0,.49,3.31c.48,3.53,1.12,7,1.66,10.56.23,1.47.36,2.95.56,4.42.13,1,.29,1.91.44,2.86.41,2.49.85,5,1.22,7.48s.68,5,1,7.5c.08.59.27,1.16.37,1.74.15.91-.17,1.38-1.1,1.63l-8.42,2.23-20.5,5.44c-.92.24-1.09.61-.63,1.44s.94,1.52,1.44,2.26q6.12,9,12.25,17.91c.67,1,1.41,1.92,2.08,2.91a2.27,2.27,0,0,1,0,2.87c-2.85,4.28-5.59,8.64-8.38,13q-6.42,10-12.84,19.93c-2,3.14-4,6.3-6,9.44a2.25,2.25,0,0,0-.51,1.22c-.82,0-1.64.11-2.46.11h-70c-.68,0-1.35,0-2,0s-.73-.39-.43-.92.54-.89.82-1.34c3.57-5.69,7.13-11.4,10.74-17.08a4.8,4.8,0,0,0,.93-3.13,9.38,9.38,0,0,0,1.77-2.56q6.11-10.19,12.18-20.39l1.94-3.28a9.43,9.43,0,0,1,.61-.94.74.74,0,0,1,1.16-.15c.43.41.81.87,1.21,1.31l2.7,2.93c.85-.49,1-1.26,1.33-1.91q7-13.81,13.89-27.64l15.29-30.46q5.59-11.11,11.23-22.21a5.56,5.56,0,0,0,.9-2.27c.65.16,1.32.27,1.95.48L349,329.2C349.41,329.34,349.89,329.36,350.18,329.76Z"/><path class="cls-6" d="M204.76,387.75c-1.25-2.14-3-3.9-4.43-5.91-.51-.73-1.09-1.42-1.65-2.12-1.3-1.6-1.3-1.59-.1-3.13.19-.23.39-.45.6-.67,2-2.14,4-4.26,5.9-6.44,3-3.4,6-6.85,9-10.25,1.49-1.66,3.09-3.24,4.51-5,1-1.27,2.29-2.36,3.26-3.7a10.64,10.64,0,0,1,1.4-1.45c.54-.51.86-.55,1.34-.06,1.11,1.12,2.23,2.22,3.23,3.42.57.7,1.17,1.36,1.76,2,2,2.23,4,4.48,5.92,6.72.25.28.51.54.76.82,3.32,3.64,6.68,7.25,9.93,10.95,1.13,1.29,2.27,2.57,3.44,3.83s1.08,1.38.37,2.78c-1,1.86-2,3.68-3,5.54-.45.86-.84,1.74-1.26,2.62-.6,0-1.19-.06-1.79-.06H206.33C205.81,387.7,205.28,387.73,204.76,387.75Z"/></g></svg>