<svg xmlns="http://www.w3.org/2000/svg" xmlns:xlink="http://www.w3.org/1999/xlink" viewBox="0 0 1318.04 1318.04"><defs><style>.cls-1{fill:none;}.cls-2{fill:#fff;}.cls-3{clip-path:url(#clip-path);}</style><clipPath id="clip-path"><circle class="cls-1" cx="659.02" cy="659.02" r="599"/></clipPath></defs><g id="Layer_2" data-name="Layer 2"><circle class="cls-2" cx="659.02" cy="659.02" r="599"/><g class="cls-3"><path d="M368.86,1052.1a131.89,131.89,0,0,0,42.47-21.35,109.27,109.27,0,0,0,30.44-35.89q11.58-21.57,11.59-50.65,0-25-10.45-41.79A99.13,99.13,0,0,0,416.33,874a154.1,154.1,0,0,0-35.21-18.85q-19.06-7.26-36.34-12.72Q328,837,320.48,833.36t-7.5-10.9q0-7.71,7.27-11.13t19.08-3.41q12.72,0,28.62,7.05a70.26,70.26,0,0,1,26.8,20.67L462,767a173,173,0,0,0-57.92-35.43q-33-12.27-64.74-12.27a199,199,0,0,0-47.7,5.92,129.36,129.36,0,0,0-43.38,19.34A107.21,107.21,0,0,0,216.68,779q-12.27,20.94-12.27,51,0,21.41,6.81,36.64a81,81,0,0,0,18.4,26.16,110.72,110.72,0,0,0,26.58,18.44,237.9,237.9,0,0,0,31.34,13q16.8,5.46,27.94,9.56A143.14,143.14,0,0,1,333,941.21q6.36,3.4,8.86,6.59a12.22,12.22,0,0,1,2.5,7.74q0,8.64-7.5,11.83a41.82,41.82,0,0,1-16.58,3.19A85,85,0,0,1,281.41,961q-18.86-9.54-30.21-21.81l-65.87,71.57A164.52,164.52,0,0,0,213,1030.44,226,226,0,0,0,246,1045.81a209,209,0,0,0,36.34,10,217.32,217.32,0,0,0,38.39,3.38A167.85,167.85,0,0,0,368.86,1052.1ZM596,946l55.88,104h122.2L697.3,918.77,774.53,811.1H652.78L596,902.42h-1.36V706.62H489.69v343.44H594.63V946ZM775,0V1568h355V0ZM982.59,1064.59a237.31,237.31,0,0,1-19.54,39.75,125.28,125.28,0,0,1-25.43,29.76,100.11,100.11,0,0,1-34.3,18.62q-19.77,6.36-46.11,6.36-8.18,0-16.81-.68t-16.58-1.83q-8-1.15-14.77-2.28a94.15,94.15,0,0,1-11.35-2.51l13.17-86.73a84.58,84.58,0,0,0,14.31,3.86,82.59,82.59,0,0,0,15.22,1.59q17.26,0,25.67-7a42.33,42.33,0,0,0,12.49-17.91l1.82-5L783.61,811.1h116.3l35.43,125.84h1.82L968.51,811.1h112.2Z"/></g></g></svg>