<?xml version="1.0" standalone="no"?>
<!DOCTYPE svg PUBLIC "-//W3C//DTD SVG 20010904//EN"
 "http://www.w3.org/TR/2001/REC-SVG-20010904/DTD/svg10.dtd">
<svg version="1.0" xmlns="http://www.w3.org/2000/svg"
 width="512.000000pt" height="512.000000pt" viewBox="0 0 512.000000 512.000000"
 preserveAspectRatio="xMidYMid meet">
<metadata>
Created by potrace 1.11, written by Peter Selinger 2001-2013
</metadata>
<g transform="translate(0.000000,512.000000) scale(0.100000,-0.100000)"
fill="#000000" stroke="none">
<path d="M3300 2560 l0 -2560 910 0 910 0 0 2560 0 2560 -910 0 -910 0 0
-2560z"/>
<path d="M1829 2306 c-4 -83 1 -1739 5 -1743 4 -5 470 -8 522 -4 8 1 12 73 12
249 1 136 1 255 1 266 1 10 20 -17 43 -60 23 -44 56 -106 74 -139 19 -33 38
-69 43 -80 11 -24 122 -228 127 -234 6 -7 616 -6 620 1 2 3 -31 66 -73 138
-43 72 -91 155 -108 184 -16 29 -57 99 -90 155 -125 213 -116 193 -96 216 10
11 40 52 67 90 27 39 52 75 57 80 51 63 248 348 243 352 -3 3 -142 6 -308 6
-285 0 -303 -1 -316 -19 -15 -21 -53 -82 -187 -297 -49 -80 -92 -143 -94 -141
-2 2 -4 226 -3 497 l0 494 -269 0 c-188 0 -269 -3 -270 -11z"/>
<path d="M1038 2256 c-1 -2 -37 -6 -78 -10 -78 -7 -190 -33 -250 -58 -19 -8
-37 -15 -40 -14 -9 1 -103 -67 -144 -103 -183 -165 -214 -483 -64 -673 56 -71
213 -166 318 -193 37 -9 199 -69 231 -86 51 -26 69 -46 69 -78 0 -74 -131 -97
-269 -47 -56 20 -149 77 -179 109 -22 24 -25 24 -40 8 -10 -9 -64 -69 -122
-131 -58 -63 -107 -117 -110 -120 -3 -3 -25 -27 -50 -53 l-45 -48 25 -20 c52
-41 114 -81 169 -108 55 -28 188 -79 224 -86 10 -2 26 -6 35 -9 50 -15 121
-21 247 -20 117 0 153 4 220 23 316 92 487 328 452 625 -10 92 -42 157 -112
231 -83 88 -170 135 -377 206 -201 69 -215 76 -223 118 -5 25 40 71 71 72 13
1 34 2 47 3 77 6 207 -46 261 -103 17 -17 33 -31 36 -31 5 0 267 260 337 335
14 15 -4 34 -92 93 -99 66 -227 122 -316 137 -18 3 -36 8 -40 11 -4 2 -43 7
-86 10 -43 3 -83 7 -90 9 -6 2 -13 2 -15 1z"/>
</g>
</svg>
